<?xml version="1.0" encoding="utf-8"?>
<!-- Generator: Adobe Illustrator 18.1.1, SVG Export Plug-In . SVG Version: 6.00 Build 0)  -->
<svg version="1.1" id="Layer_1" xmlns="http://www.w3.org/2000/svg" xmlns:xlink="http://www.w3.org/1999/xlink" x="0px" y="0px"
	 viewBox="0 0 190.3 234.5" enable-background="new 0 0 190.3 234.5" xml:space="preserve">
<g>
	<g>
		<g>
			<path d="M8.5,229.1c6-23.6,13.5-46.7,22.8-69.2c9.2-22.4,19.7-44.8,32.6-65.3c5.6-8.8,14-19,25.7-16.9
				c11.5,2.1,23.6,13.7,19.2,26c-1.9,5.4-5.7,10.1-9.2,14.7c-4.2,5.6-8.5,11.1-12.8,16.6c-7.7,9.8-15.6,19.6-23.6,29.2
				c-18,21.6-36.8,42.6-56.3,63c-2.2,2.3,1.3,5.9,3.5,3.5c19.9-20.8,39.1-42.3,57.5-64.4c8.8-10.6,17.4-21.3,25.9-32.2
				c4-5.1,7.9-10.2,11.8-15.4c3.8-5,7.6-10.5,8.9-16.8c2.2-10.9-5.4-19.9-14.2-25.2c-8.8-5.3-19-5.7-27.5,0.3
				c-9.2,6.5-14.7,17.2-20,26.8c-6.8,12.2-13.1,24.7-18.8,37.5c-12.6,27.9-22.7,56.9-30.2,86.6C2.9,230.9,7.7,232.2,8.5,229.1
				L8.5,229.1z"/>
			<path d="M3.4,228.6c0.1,0.6,0.1,1.2,0.2,1.9c0.1,0.8,0.3,1.5,1,2c0.6,0.5,1.4,0.6,2.2,0.4c1.7-0.4,3.2-1.6,3.9-3.2
				c0.5-1.2,0.4-2.7-0.9-3.4c-1.1-0.6-2.8-0.4-3.4,0.9c0,0.1-0.1,0.2-0.1,0.3c0,0.1-0.3,0.4-0.1,0.1c0.2-0.3,0,0-0.1,0
				c-0.1,0.1-0.3,0.2-0.3,0.3c0-0.1,0.4-0.3,0.1-0.1c-0.1,0.1-0.2,0.1-0.3,0.2c-0.4,0.2,0.4-0.1,0.1,0c-0.1,0-0.2,0.1-0.4,0.1
				c1.1,0.8,2.1,1.6,3.2,2.4c-0.1-0.6-0.1-1.2-0.2-1.9c-0.1-0.7-0.2-1.3-0.7-1.8c-0.4-0.4-1.1-0.8-1.8-0.7
				C4.7,226.1,3.2,227.2,3.4,228.6L3.4,228.6z"/>
		</g>
	</g>
	<g>
		<g>
			<path d="M91.8,78.2c3.2,0,3.2-5,0-5C88.6,73.2,88.6,78.2,91.8,78.2L91.8,78.2z"/>
		</g>
	</g>
	<g>
		<g>
			<path d="M92.9,77.6c4.6-3.3,7.2-8.5,6.6-14.2c-0.3-2.8-1.4-4.8-2.8-7.1c-1.6-2.7-2.9-5.3-0.3-8.1c1.8-2,4.4-2.3,7-2.2
				c1.4,0.1,2.5-1.2,2.5-2.5c0.3-8.1,5.5-16.9,14.8-15.5c3.1,0.5,4.5-4.3,1.3-4.8c-12.6-2-20.8,8.6-21.2,20.3
				c0.8-0.8,1.7-1.7,2.5-2.5c-6.4-0.4-13,3.4-13.5,10.3c-0.3,3.6,1.5,5.7,3.3,8.6c2.6,4.5,1.4,10.3-2.8,13.3
				C87.8,75.1,90.3,79.4,92.9,77.6L92.9,77.6z"/>
		</g>
	</g>
	<g>
		<g>
			<path d="M124.3,27.1c1.7-4.2,4.3-8,7.7-11c3.6-3.3,11.4-8.6,15.5-3c0.9,1.2,2.8,1.8,3.9,0.5c2.3-2.6,5.6-4.6,9.2-3.3
				c4.2,1.5,5.5,7,1.6,9.7c-2.4,1.6-0.9,5.2,1.9,4.6c1.9-0.5,3.4,0.1,4.6,1.7c1.8,2.6,6.2,0.1,4.3-2.5c-2.5-3.5-6-4.9-10.2-4
				c0.6,1.5,1.3,3,1.9,4.6c5.6-3.7,6.7-11.4,1.7-16.2c-5.6-5.3-13.8-3.4-18.5,2c1.3,0.2,2.6,0.3,3.9,0.5
				c-10.5-14.4-28,4.9-32.3,15.2C118.3,28.7,123.1,30,124.3,27.1L124.3,27.1z"/>
		</g>
	</g>
	<g>
		<g>
			<path d="M98.6,78.8c3.9-4.9,7.2-9.7,8.8-15.9c0.8-3.1,1.3-7.1,3.6-9.6c2.6-2.7,6.8-2.6,10.2-3c4.2-0.5,8.7-1.5,11.4-5.1
				c3.6-4.9,0.9-16.8,10.6-14c3.1,0.9,4.4-3.9,1.3-4.8c-5-1.5-10.7,0.4-13.3,5.1c-1.6,2.9-0.8,6.3-2,9.3c-1.7,4.4-7.1,4.3-11,4.7
				c-5.8,0.6-10.8,2.5-13.4,8c-1.3,2.7-1.8,5.7-2.5,8.6c-1.4,5-4.1,9-7.3,13C93.1,77.7,96.6,81.3,98.6,78.8L98.6,78.8z"/>
		</g>
	</g>
	<g>
		<g>
			<path d="M103.9,81.6c1.9-4.1,4-7.9,8.8-9.1c3.3-0.8,6.9-0.3,10.1-1.5c2.6-1,4.4-2.7,5.7-5.2c0.7-1.3,1-3.4,1.9-4.5
				c2.5-2.6,5.1-1,7.8-0.5c6.1,1.1,12.6-1.2,16.8-5.8c2.2-2.5,2.8-5.8,4.8-8.3c2.3-2.8,6-0.2,9-2.2c2.7-1.8,0.2-6.1-2.5-4.3
				c-1.1,0.7-3.2-0.4-4.5-0.3c-1.3,0-2.5,0.4-3.5,1.1c-2.7,1.8-3.5,4.9-5,7.5c-2.4,4.4-6.7,7.4-11.8,7.5c-3.9,0.1-7.8-2.4-11.6-0.8
				c-2.4,1-3.6,3-4.6,5.2c-1.1,2.4-1.6,4.6-4.2,5.8c-1.8,0.8-4,0.7-5.9,0.9c-8,0.8-12.3,4.6-15.7,11.9
				C98.2,81.9,102.5,84.5,103.9,81.6L103.9,81.6z"/>
		</g>
	</g>
	<g>
		<g>
			<path d="M168.6,45.2c7.5-4.4,9.8-13.8,4.9-21.1c-1.8-2.7-6.1-0.2-4.3,2.5c3.3,5.1,2.1,11.2-3.1,14.3
				C163.3,42.5,165.9,46.8,168.6,45.2L168.6,45.2z"/>
		</g>
	</g>
	<g>
		<g>
			<path d="M107.5,84.5c1.8-2.2,4.4-3.7,7.4-3.1c2.2,0.5,3.6,2.2,5.6,3c3.3,1.4,6.2,0.4,8.5-2.2c1.3-1.5,2.1-3.6,3.5-4.9
				c3.2-2.9,6.6-0.5,9.6,1.2c3.1,1.8,6.9,3.4,10.4,1.9c1.6-0.7,2.7-1.9,3.6-3.4c0.3-0.5,0.4-1.2,0.8-1.7c0.1-1.5,0.9-2.2,2.3-2.2
				c1.1-0.8,2-0.7,2.6,0.5c3.2,1.3,5.2,2.3,8.7,0.7c3.6-1.7,5.4-5.3,6.5-9c0.5-1.7,2-11.5-2-9.6c2.9-1.4,0.4-5.7-2.5-4.3
				c-2.8,1.3-2.4,3.9-1.3,6.2c0.7,1.4,1.7,2.3,1.6,4.2c-0.1,1.2-0.7,2.8-1.2,3.9c-0.7,1.6-1.9,3.9-3.8,4.3c-1.8,0.3-3.4-1.4-4.7-2.2
				c-2.7-1.6-5.3-1.8-7.8,0.6c-1.4,1.3-1.7,2.9-2.6,4.4c-2.7,4.3-5.7,2.8-9.2,0.7c-3.3-2-6.6-3.3-10.4-2.1c-3.9,1.2-4.6,4.3-7.3,6.9
				c-2.8,2.7-4.8,0.2-7.8-1c-1.5-0.6-3.2-0.9-4.9-0.9c-3.6,0.1-6.9,1.9-9.1,4.7C102,83.5,105.5,87.1,107.5,84.5L107.5,84.5z"/>
		</g>
	</g>
	<g>
		<g>
			<path d="M173.1,56.4c7.8-3.1,16.7-7.5,15.7-17.2c-0.7-6.6-6.3-15.8-13.9-12.1c-2.9,1.4-0.4,5.7,2.5,4.3c4.6-2.3,7.1,8.7,6.3,11.6
				c-1.4,4.6-8,7-11.9,8.6C168.8,52.7,170.1,57.6,173.1,56.4L173.1,56.4z"/>
		</g>
	</g>
	<g>
		<g>
			<path d="M86.5,76.1c3.1-5,1.7-11.3-1.3-16.1c-1.5-2.4-3.6-3.7-5.9-5.3c-1.7-1.2-3.4-2.3-4.4-4.2c-2.2-4.4,1.1-8.7,5.7-7
				c1.2,0.4,2.9-0.5,3.1-1.7c0.2-1.7,0.4-3.2,0.2-4.9c-0.2-3.2-5.2-3.2-5,0c0.2,1.2,0.1,2.4,0,3.6c1-0.6,2.1-1.2,3.1-1.7
				c-7.1-2.6-14.1,3.3-12.6,10.8c0.7,3.7,3.3,6.7,6.3,8.8c4.7,3.2,10.3,9,6.5,15.2C80.5,76.3,84.8,78.9,86.5,76.1L86.5,76.1z"/>
		</g>
	</g>
	<g>
		<g>
			<path d="M83.3,38c-0.7-5.3,0.7-11.4,4.9-15c2.4-2.1,4.5-2.3,7.5-1.6c1.5,0.4,1.8,0.7,3.2,0.3c3-0.9,4.4-4.8,7.1-6.4
				c2.9-1.8,7.2-1.4,10,0.7c1.6,0.3,2.2,1.2,1.6,2.8c-0.3,1.1-0.5,2.3-0.8,3.4c-0.7,3.1,4.1,4.5,4.8,1.3c0.7-2.9,2.4-6.8,0.3-9.4
				c-1.6-2.1-5-3.3-7.4-4.1c-3.1-1-6.2-1.2-9.3,0.1c-3.2,1.3-4.5,4.1-7.1,5.8c-1.9,1.2-5.1-0.4-7.7,0.3c-2.6,0.7-5.1,2.3-6.9,4.3
				c-4.8,5.1-6.1,12.1-5.2,18.8C78.9,42.6,83.7,41.2,83.3,38L83.3,38z"/>
		</g>
	</g>
	<g>
		<g>
			<path d="M94.8,44.8c-1.4-2.8,0.2-6,2.8-7.2c2.9-1.4,0.4-5.7-2.5-4.3c-5.3,2.4-7.1,9-4.6,14.1C92,50.2,96.3,47.7,94.8,44.8
				L94.8,44.8z"/>
		</g>
	</g>
	<g>
		<g>
			<path d="M129.3,66.4c1.7-1.7,6.9,0.8,9.2,0.7c3,0,5.8-1,8.3-2.6c2.7-1.7,0.2-6-2.5-4.3c-4.1,2.6-7.2,1.5-11.6,0.7
				c-2.6-0.5-5,0-6.9,1.9C123.5,65.2,127,68.7,129.3,66.4L129.3,66.4z"/>
		</g>
	</g>
	<g>
		<g>
			<path d="M55.7,104.2c4.9,0.8,9.3,2.8,13,6.2c2.4,2.2,5.9-1.3,3.5-3.5c-4.3-3.9-9.4-6.6-15.2-7.5C53.9,98.9,52.5,103.7,55.7,104.2
				L55.7,104.2z"/>
		</g>
	</g>
	<g>
		<g>
			<path d="M69.5,132.7c4.5,1.9,8.2,5,10.8,9.2c1.7,2.7,6,0.2,4.3-2.5c-3-4.9-7.3-8.7-12.6-11C69.1,127.2,66.5,131.5,69.5,132.7
				L69.5,132.7z"/>
		</g>
	</g>
	<g>
		<g>
			<path d="M40.5,135.7c5.2,0.4,10,3,13.1,7.3c1.9,2.6,6.2,0.1,4.3-2.5c-4.2-5.8-10.3-9.3-17.4-9.8
				C37.3,130.4,37.3,135.4,40.5,135.7L40.5,135.7z"/>
		</g>
	</g>
	<g>
		<g>
			<path d="M61.3,169.4c-1.9-5.4-5.7-9.8-10.9-12.2c-2.9-1.3-5.4,3-2.5,4.3c4,1.9,7.1,5,8.6,9.2C57.6,173.7,62.4,172.4,61.3,169.4
				L61.3,169.4z"/>
		</g>
	</g>
	<g>
		<g>
			<path d="M25.2,172.8c1.9-0.1,3.5,0.5,4.8,1.8c2.3,2.3,5.8-1.3,3.5-3.5c-2.2-2.2-5.2-3.4-8.4-3.3C22,168,21.9,173,25.2,172.8
				L25.2,172.8z"/>
		</g>
	</g>
	<g>
		<g>
			<path d="M85.2,97.4c6.9,4.1,14.3,8.6,17.2,16.6c1.1,3,5.9,1.7,4.8-1.3c-3.4-9.3-11.3-14.7-19.5-19.6C85,91.5,82.5,95.8,85.2,97.4
				L85.2,97.4z"/>
		</g>
	</g>
</g>
</svg>
